<svg xmlns="http://www.w3.org/2000/svg" viewBox="0 255.1 146.5 100.2">
  <title>
    usda-logo
  </title>
  <desc>
    United States Department of Agriculture
  </desc>
  <path fill="#1C4E9D" d="M33.2 259.2l-.2 25.3C33 295 26.8 299 18.4 299 11.2 299 2 295.8 2 284.9v-25.7c0-1.4-1-2.3-2-2.8h11.9c-1 .5-1.9 1.4-1.9 2.8v25.9c0 4.3 1.5 10.4 9.5 10.4 7.4 0 10-4.8 10-10.9l-.1-25.4c0-1.4-.7-2.3-1.7-2.8h7.2c-1 .5-1.7 1.4-1.7 2.8M50 299c-5.6 0-9.7-1.9-11.8-3l-.3-10.4c1.2 4.4 4.9 10.2 11.3 10.2 6.1 0 8-4.4 8-7.4 0-5.9-5.4-6.7-11-9.8-5.7-3.2-8.2-6.5-8.2-11.2 0-8.4 7.8-11.7 13.5-11.7 2.1 0 6.2.4 9.3 2.3l.3 9.1c-.9-3.3-4.4-8.2-10.3-8.2-4.7 0-6.5 3.3-6.5 5.9 0 3.8 2.7 5.2 8.5 7.8 5.8 2.7 11.7 4.8 11.7 13.3-.1 7.9-6.9 13.1-14.5 13.1m33.6-39.5c-1.5 0-4.8 0-5.7.1v35.6h4.9c14 0 17.9-9.4 17.9-18.4 0-7.4-4.4-17.3-17.1-17.3zm.7 38.9H68.4c.9-.6 1.6-1.4 1.6-2.8v-36.4c0-1.4-.7-2.3-1.6-2.8h16.4c20.3 0 24.4 14.4 24.4 20.4.1 10.8-8.2 21.6-24.9 21.6zm39.2-29.9s-4.2 10.5-6.2 15.1h12.5c-2.9-6.9-6.3-15.1-6.3-15.1zm9.8 29.9c1.6-.9 1.9-1.7 1.5-3-.2-.6-1.8-4.4-3.5-8.6h-15.1c-1.9 4.2-3.3 7.8-3.5 8.5-.6 1.5-.2 2.3 1.4 3.1h-8.5c1.7-1.2 2.3-1.9 2.9-3 1.2-2.3 17.4-40.3 17.4-40.3s16.4 37.9 17.5 40.3c.6 1.3 1 2 3.1 3h-13.2z"/>
  <g fill="#004E3A">
    <path d="M144.6 304.4s-89.9-2.2-143.1 26.1c0 0 56.4-22.3 143.1-20.1v-6m-143.1 0s30.3.3 49.1 7.3c0 0-38.6-3.2-49.1-1.6v-5.7m0 9.8s21.7-1 34.7.3c0 0-31.5 3.8-34.7 5.4v-5.7"/>
    <path d="M129.7 315.2h-.5c-26.1.5-80.9 3.7-127.7 20.2v19.9h143.1v-40.1s-5.5-.2-14.9 0"/>
  </g>
</svg>
